<svg xmlns="http://www.w3.org/2000/svg" viewBox="0 0 1856.5 2514.2">
  <path d="M8.6 2029.5c0-6.9-.3-13.9-.1-20.8.4-12.4-1.3-24.9 4-36.9 1.5-3.6-.8-8.7-1-13.1-.4-6.6-1.3-13.3 3.1-19.2.7-1 1.3-2.9.8-3.8-4.3-7.2-.2-14.3.1-21.4.9-20.9 1.9-41.8-.9-62.7-1.2-9.3-1.5-18.8-3.4-28.1-.4-2.3-.8-5.1.1-6.9 3.2-6.1 2.2-11.9-.4-17.9h4.4c.1-.5.6-1.3.4-1.6-2.7-5.3-2.3-10.6-1.5-16.4 1-7.4-1-15.1 0-22.5 1.9-15.4 1.2-30.9 2.1-46.3s1-31.9 1.2-47.8 0-29.8 0-44.7c0-8.5 0-17.1.3-25.7 1.2-28.9-1.3-57.7-2.6-86.5-.6-11.4.5-22.7.2-34.1s-1.7-20.6-2.4-31a56.7 56.7 0 01-.2-10.9c1.2-11.6-.1-23-.5-34.5-.1-3.9.8-7.8 1.1-11.7.3-2.3 1-4.7.5-6.8-3.5-14.7-1.1-29.6-1.1-44.4 0-3.6-.3-7.1-.5-10.6 0-.7-.7-1.4-.5-1.9 4.1-8.9-1.6-17.6-.7-26.6s-.1-17.9-.2-26.8-1-18.8.4-27.9c2.4-15.1.7-30.4 3.2-45.4.9-5.3 1.4-10.6 2.5-15.8 3.7-17.6 2.3-35.5 2.7-53.3q.9-30.9 1.7-61.8c.5-20.8-.2-41.6 1.6-62.2s-.8-41.9-1-62.8c-.1-18.3-2.6-36.6-1.6-54.7.7-11.7-6-22.7-1.9-34.4.5-1.5-1.5-3.6-1.8-5.5-.6-4.6-1.5-9.2-1.3-13.8s3-9.2 0-14.4c-1-1.6 1.9-5.4 3.3-8.8-.5-1.2-2.1-3.3-2.4-5.6-1.1-9.4-3.7-18.7-.1-28.2.6-1.4-.8-3.7-1.4-5.6-1.7-6.1-3.6-12-.3-18.3.8-1.6.3-3.9.2-5.8-.3-7-.5-14.1-1.2-21-.3-3 .1-4.8 2.1-7.1s1.6-5.1.6-6.1c-4.1-4.3-1.6-8.5-1.2-13 1.1-12.7 1.7-25.4 2.5-38.2.2-2.6-.1-5.6 1-7.8 3.7-7.2 3-14.5 2.1-22.2-.6-5-2.1-10.6 1.9-15.3.6-.6-.2-2.4-.5-3.6s-1.8-4-1.3-5.6c3.3-11.6-2.3-23.5.3-34.6s-1.9-24.2 1.2-36.7c2.5-9.9-.6-21.2-1.2-31.9-.3-5.3-.9-10.5 1.9-15.5 1.6-2.9 1.2-6.1-.6-9.5a32 32 0 01-2.9-11c-.5-4-.2-8-.2-12 0-5.9-1.1-12.1 5.5-15.8l-3.7-6.5c-3.4-6.2-1.3-13-.7-19.1 1.3-12.5-1.4-24.7-1.2-36.9.2-10.3 2-20.5 2.7-30.7 1-13.5 2.4-27.1 2.4-40.7 0-20.4-1-40.8-1.6-61.2s-1.2-41-2-61.5a66.8 66.8 0 00-1.5-11.8C15 148.7 12.2 129 11.7 109c-.4-14.5.2-29.1 1-43.6.3-5.9 2.5-11.7 3.6-17.5.5-2.4.4-5 .8-7.5 1.2-7.4 1.6-15.3 9-20 .8-.5 2.1-.9 2.4-1.6C32.6 8.3 42 8.1 50.9 7.2 62.7 6 74.5 5 86.3 4.5a124 124 0 0122.8 1c3.5.5 6.6 1.3 10.2.1s5.3.4 7.6 1.5c3.8 1.8 6.9 2.6 10.9-.4 2.1-1.7 6.4-.8 9.7-.6 10.5.6 20.9 1.8 31.4 2.2 13 .5 25.9.7 38.9.7s26.9-.5 40.4-.9c9.5-.4 18.8-.8 28.4.2 7.9.9 16.3-3 24.3-2.5 16.5 1.1 32.7-3.5 48.9-2 8.1.7 15.6-2.1 23.4-1.4 6.2.6 12.2 1.5 18.5.1s12.6-.4 18.8.1c3.9.3 7.7 1.5 11.6 2.4 1.2.3 2.6 1.2 3.7.9 10.6-2.8 21.2-2.2 32-.7 4.4.6 9-.9 13.5-.9q12.9-.1 25.8.6c1.3.1 2.4 2.9 3.6 4.5 6-6.2 10.9-7 18.6-3 3.6 1.8 7 3.3 11.1.6 1.7-1.2 4.5-.8 7.3-1.1l1.2 5.4c.5-.3 1.4-.5 1.4-.8.6-4.6 3.3-5.7 7.7-5.5 18.3.9 36.5 1.8 54.8 2.1 14.8.3 29.7-.3 44.5-.3 3.3 0 6.6.6 9.9.8s5.9.7 8.6 0q8.1-1.8 13.5 3.3c3.6-1.2 6.9-3.3 10.1-3.1 11.4.9 22.8.4 34.2.5 2.8 0 5.6 2 8.4 2 8.6 0 17.1-.6 25.7-.7 15.6-.1 31.2-.2 46.8.1 3 .1 6 2.3 7.6 2.9 3.9-1.7 6.7-3.9 9.7-4.1 7.9-.5 15.8-.1 23.7 0 20 .3 39.9.6 59.9 1.1 25.2.6 50.4 1.4 75.6 2.2s49.8 2.1 74.8 2.7 47.9 0 71.8 1.4c8.9.5 18.2-2.2 27.2 2 2.8 1.2 7.2-1.9 10.9-2.1a162.4 162.4 0 0120.9.4c2.6.2 5 2.4 9.2 4.5l2.6-5.8 1.6 2.6c4.3-.5 8.7-1.4 13-1.4 13-.2 26-.3 38.9.2 2.8.1 5.5 2.8 8.2 4.3 1.7-1.4 3.5-4 5.2-3.9 3.5.1 6.9 1.7 11.8 3.1 6.1-3.1 14.2-3.6 22.5-3.2 16.2.5 32.3 1.9 48.5.4 6.7-.6 13 3 20.2 1.2s14.4-1.4 21.7-1.2c9.9.3 19.7.9 29.7.2 32.8-2.4 65.7-3.8 98.6-5.9 29.2-1.8 58.4-3.9 87.5-6.1 24.9-1.9 49.8-3 74.6-.7 19.7 1.8 39 .6 58.5-1.9 13.7-1.7 27.5-4.1 41.7-1.3 21.8 4.3 37.2 16.4 49.1 34.5a92.2 92.2 0 0114.8 48c.5 14.6 1.5 29.2 1.9 43.8.1 3.1-1.1 6.3-1.8 9.4-.2.6-1 1.3-.8 1.7 5.5 13.2-1.2 26.2-1.1 39.4s-3.2 27.1-4.6 40.7c-2.4 23.1-5.4 46.3-6.6 69.5-1 20.8.5 41.7.4 62.6-.1 29.1-1.5 58.3-.6 87.4.3 9.4-2.8 18.9.6 28.3.6 1.8-1 4.4-1.5 6.6s-1.3 2.8-.9 3.7c6.1 12.8 1.7 26.3 2.3 39.4 1.1 22.3.9 44.8.6 67.2-.2 10.1-1.2 20.2.2 30.3.5 4-1.8 8.3-3.1 13.3.8 3.3 5.7 7.1.8 11.8a2 2 0 00-.5 1.8c6.2 18 1.9 36.6 2.6 54.8.2 7 .6 13.9.6 20.8 0 3.6-1 7.2-1.2 10.8a58 58 0 00.5 9.3c.3 2.9 1.9 6 1.3 8.6-1.8 8.1-.6 16.2-.5 24.2.1 2.7-1.6 5.4-2.6 8.5 5.1 2.7 4.1 8.4 3.5 13.3a100.7 100.7 0 00.2 26.3c1.3 10.1-2.3 20.3.1 30.4.3.9.2 2.4-.4 2.9-3.2 2.6-.2 5-.1 7.5.3 13.3-.2 26.6-.6 39.9 0 1.2-1.3 2.5-1.1 3.6 2.9 13.6 2.6 27.5 2.1 41.1-.5 11.8 2.5 23.6.1 35.1-1.7 8.1 1.5 15.6.5 23.5s-.2 16.2.2 24.4c.6 13.2-.2 26.5.2 39.7.6 22.9 1.4 45.7 2.7 68.5s4.3 46.8 2.4 70.4c-.5 5.2 1 10.5.9 15.8s-1.1 10.4-1.8 15.6c-.1.9-.9 1.9-.7 2.8 4.2 16.4 1.1 32.8.6 49.3s-.2 32.3-.5 48.4c-.3 19.6-1 39.2-1.2 58.8-.2 14.6.3 29.2.2 43.8 0 10.6-.6 21.2-.6 31.9s.5 20.5.6 30.8c.1 25.7 0 51.3.1 76.9 0 16.7 0 33.3.2 49.9.2 24.8.9 49.6 1 74.4.1 18.6-.8 37.2-.5 55.8.3 26.6 1.5 53.2 1.8 79.8s0 50.6 0 75.8c0 6.6.4 13.3.4 19.9-.2 34.9-.5 69.9-.6 104.8-.1 16 .4 31.9.3 47.9-.1 4.5-1.3 9-2.1 13.5-.1.9-.8 2.3-.5 2.6 5.7 4.9 2.3 11.2 2.7 16.8 1.3 19.5-.2 39.1-.1 58.6 0 16 1.5 31.9.7 48s.7 31.9.9 47.9c.1 20.1-.3 40.3-.2 60.5.1 33.5.6 67 .3 100.4-.2 15.4-3.7 30.3-13.2 43.2-5.7 7.8-12.5 13.5-22.4 15.4-12 2.3-23.8 6.1-35.8 8.3s-23.2 4.2-34.8 3.9c-7.6-.2-16.5 2.4-23-4.8-2.3 2.2-4.1 5-6.6 5.9s-5.9.3-8.8-.3-7.2-2-11.1-.3c-1.1.5-3.7-.2-4.2-1.1-1.8-3.2-3-1.9-5.3-.5s-4.5.9-6.8.7c-9.2-.7-18.4-1.8-27.6-2.2-4.5-.3-7.9-1.1-8.4-9.5-3.6 9.4-8.8 8.1-13.5 6.7-17-4.8-34.5-5.7-52-5.3-21.9.5-43.8 1.7-65.7 2.1s-41 .3-61.4-.2c-5.8-.1-11.4-2.4-16.2-3.5-6 .8-11.3 2.1-16.8 2.2-10.4.2-21 .2-31.4-.6-4.8-.3-9.3-3.2-14.1-3.5s-9 2.3-13.4 2c-12.2-.7-24.4-2.6-36.6-3.4-7.7-.5-15.4.4-23.1.4s-13.4 0-19.9-1a267.9 267.9 0 00-58-2.4c-8.2.6-16.5-.4-24.8-.3-5.5.1-10.9 1.2-16.4 1.1-2.5 0-4.9-1.7-8.3-3.1-3.3 2.4-7.3 3.7-13.3 1.4s-10.9.8-16.5.9c-19.6.2-39.2 0-58.9.2s-37.9.5-56.8.7c-13.4.2-26.9.3-40.3.6a9.7 9.7 0 00-4.7 1.2c-6.5 3.7-13.7-.3-20.9 2.4s-14.2.4-21.5.3c-1.9-.1-4.1-.9-5.8-.4-3.8 1.2-7.4 3.8-11.2 4.2s-8.7-2.8-12.1-1.6a52.2 52.2 0 01-19.5 2.6c-20.2-.8-40.3-1.5-60.5-2.5-9.1-.5-18.2-.9-27.4-.1-5.8.5-11.9-.9-17.8-1s-13.1.5-19.6.8c-2.7.1-5.5.6-8 0-4.3-1.2-8.3-1.9-12.4.5a4.9 4.9 0 01-3.9.4c-4.7-1.8-9.7.5-13.8-.5-9.4-2.3-17.6 3.1-26.6 2.3s-17.9-.1-27-.1l1.9-4.4c-2 0-4.6-.9-5.9.1-8.3 6-17.5 5.3-26.9 4.5-5.6-.6-11.3-.1-16.9-.7-3.8-.4-7.5-2-11.2-2.8a36.7 36.7 0 00-6.6-.5c-3.7.1-7.4.9-10.9.4-21.1-3.1-42.1.2-63.1-.1-5.2 0-10.9 1.5-14.6-3.8-9.5 3.4-18.5 6.7-28.1 1.8-1-.5-2.6-.1-3.8.3-9.1 3.1-18.2 1.4-27.4.9-12.6-.8-25.2-.3-37.8-.7-16.9-.7-33 4.2-49.5 6.6-12.4 1.8-24.9 2.9-37.3 4.3-4.4.5-8.5-1.9-13.3.5s-9 1.9-13.2 1.1c-9-1.6-17.7-.3-26.5.2-19.4 1.2-38.8 2.7-58.2 3.7a226.3 226.3 0 00-34.8 4.1c-8.3-4.3-17.6 3.5-25.9-2-.9-.5-3.1.7-4.6 1.3-9 3.6-17.8 2.5-26.5-1.5a4.1 4.1 0 00-3.4.4c-4.7 2.8-8.1.2-11.1-3.1-5.6 8.2-13.5 4.8-20.1 4.4-11.8-.9-23.5-3.3-35.3-4.8-5-.7-10-.5-13.5-5-.7-.9-2.7-1.7-3.4-1.4-3.4 1.6-5.3 1.8-6.5-2.6-.4-1.1-4.8-1.1-7.8-1.7l.8-9.1-6.7 6.5a19.2 19.2 0 01-1.8-2.2c-.7-1.1-.8-2.8-1.7-3.5-12-9.6-12.6-23.3-13.8-36.8-2.8-30.2-6.5-60.3-8-90.5-1.2-25.5-.8-51.1.4-76.6.7-14.4 5.4-28.6 6.8-43.1 1.1-11.8 0-23.8-.2-35.7 0-2-1-4.3-.3-5.9 3.9-7.8.4-15.3-.9-23.4l8.5-5.6-8.4-1.9c1.2-14.5 2.4-29.3 3.5-42.6-1.8-3.2-4.3-5.7-4.3-8.2-.2-12.2.2-24.4.8-36.6.3-6.3.7-6.3 5.4-10.6-3-4.6-6.7-8.8-4.1-15.4 1.3-3.3-.5-7.8-.4-11.7s.9-9.7 1.4-14.6c.1 1.7.3 3.3.5 5l1.5.2 2.5-4.6zm13.9-1200l-2.2-.8c-.7 1.2-1.7 2.4-1.9 3.8s.9 1.8 2.3 4.4c.9-3.7 1.4-5.6 1.8-7.4z" fill="#e9be5a"/>
</svg>
