<svg xmlns="http://www.w3.org/2000/svg" viewBox="0 0 196.15 169.44"><defs><style>.a{fill:#d9ddcb;}.b{fill:#c85d37;}</style></defs><path class="a" d="M196.05,81.38a16,16,0,0,0-2.82-7.26,36.16,36.16,0,0,1-4-8.92c-2.55-8.14-4.86-16.69-7-25.46s-3.91-17.76-5.66-26.9C174.73,3.08,172.16-.66,169,1.56L137.09,24.29c-1.36,1-4.67,18.81-5.39,27.81-24.28,0-48.56-.27-72.84-1A163.39,163.39,0,0,0,56.75,30c-1.82-9.44-4.4-9.91-6.29-10.83C37.88,13,25.3,13.6,12.71,7.48c-.28,2.65-.57,5.3-.85,8l.73.35a18,18,0,0,0-.93,1.54h0c-1.22,11.34-4.51,38.2-4.54,38.36-.44,3.25-5.16,26-5.66,28.47,0,.5-1.12,6.09-1.46,8.69a92,92,0,0,1,17,18.47,56.82,56.82,0,0,0,6.76,4.07q-.18,19.71-.34,39.43c0,3.66,1.09,5.29,2.11,4.92.3,1,.74,1.65,1.31,1.77a367.65,367.65,0,0,0,134.64,3.24,4.37,4.37,0,0,0,3.51-.29.74.74,0,0,0,.39.08,2.27,2.27,0,0,0,1.37-.66l1-.17c1.17-.2,1.76-2.78,1.79-5.31a13.84,13.84,0,0,0-.21-5.23c.28-5.69,0-12.31-.17-16.79l-.46-14.89.06-12.59a19.68,19.68,0,0,0,6.49-1.39,137.28,137.28,0,0,1,13-13.13c2.07-1.78,4.17-3.37,6.29-4.86C196.12,88.47,196.31,84.39,196.05,81.38ZM5.57,88.66l.09-.17q.24.36.48.69Zm9.64-71.19c0-.09,0-.17-.05-.26A1.66,1.66,0,0,0,15.1,17l.38.19ZM16,26.93c0-.31,0-.63,0-.95a6.42,6.42,0,0,1,.34-.56.77.77,0,0,0,0,.15C16.26,26,16.14,26.46,16,26.93Zm.62,36.55c0-.26.07-.51.1-.76,0,.29,0,.59.05.88A1.58,1.58,0,0,0,16.65,63.48ZM95.71,73.62c0,.17-.06.35-.08.54l-.17-.07A3,3,0,0,0,95.71,73.62ZM75.93,129.53l.34-.1a.51.51,0,0,0,.16.09,10.47,10.47,0,0,0,2,.32l-3.19,1.92c0-.34,0-.65,0-1Q75.58,130.16,75.93,129.53Zm-56.42-109c-.11-.51-.23-1-.36-1.52l1.42.69A1.3,1.3,0,0,0,19.51,20.49Zm8.35,102.93a.71.71,0,0,0-.39-.19v-.47A3.38,3.38,0,0,0,27.86,123.42Zm-.63,27.83c0-.68,0-1.36,0-2a16.55,16.55,0,0,0,2.84,2.61C29.14,151.63,28.18,151.45,27.23,151.25Zm10.22,2a9.71,9.71,0,0,0,1.34-.52,21.39,21.39,0,0,0,2.26-.06c.29.68.66,1.1,1.11,1.08,2.6-.15,5.2-.41,7.8-.74a15.45,15.45,0,0,0,.17,2.3Q43.79,154.35,37.45,153.22Zm13.73-28.11-.09-.18c.09-.13.18-.27.28-.4C51.31,124.73,51.24,124.91,51.18,125.11ZM57,109.44l-.06-.16c.77-2,1.51-4.16,2.2-6.42a5.63,5.63,0,0,0,.71,1.73c-.1.23-.2.47-.31.7C58.7,106.61,57.86,108,57,109.44Zm3.26,23.66-.08.1a7.3,7.3,0,0,0-.63-2.45,5.32,5.32,0,0,0,.21-.53c.21-.28.42-.55.64-.8a15.28,15.28,0,0,0,.2,1.57C60.51,131.69,60.39,132.4,60.28,133.1ZM60.48,79l-1.13-.24a1.6,1.6,0,0,0,0-.21c.63,0,1.27,0,1.9,0a4,4,0,0,0,.3.62C61.22,79.08,60.85,79.05,60.48,79Zm4.58,35.72c-.72-1.51-1.52-2.2-2.36-2.3.75-1.08,1.5-2.1,2.27-3.07a12.07,12.07,0,0,0,.52,4.34.33.33,0,0,1,0,.06C65.36,114.06,65.21,114.38,65.06,114.71ZM67,143.94l0-.13.11.14Zm3.79,0h-.65a7.9,7.9,0,0,0,.7-.92ZM69.32,93.4c.34-1.1.66-2.23,1-3.36.38,0,.76,0,1.13,0a2.17,2.17,0,0,0,.73,1C71.21,91.74,70.26,92.54,69.32,93.4Zm5.36,50.23.09-1.3.15.06c1.51.2,3,.37,4.52.51C77.85,143.19,76.27,143.45,74.68,143.63ZM95.11,159l.64-.38,0,.4ZM166.32,38.58c.36-.12.73-.26,1.1-.42a1.35,1.35,0,0,0,.43-.37l.45-.06c0,.74,0,1.48.11,2.2a6.1,6.1,0,0,1-2.29-1.15A1.26,1.26,0,0,1,166.32,38.58ZM151.4,73.26a.88.88,0,0,0-.58.26c-.06-.15-.12-.3-.19-.44.57,0,1.14,0,1.71,0l-.19.19Zm-3-41.37a16.16,16.16,0,0,0-.09,2.11l-1.2-1ZM127.55,73.81c0-.29,0-.57,0-.85l4.91,0A34.63,34.63,0,0,0,127.55,73.81Zm15.81,54.89a1,1,0,0,0-.84-.38l-1.1.15a17.1,17.1,0,0,0,1.47-1.09l1.25-1.1a11.25,11.25,0,0,0,.59,2.15C144.28,128.52,143.82,128.62,143.36,128.7Zm6.42.9h-1a5,5,0,0,0-.29-.83,22.39,22.39,0,0,0,2.37-3.72,7.92,7.92,0,0,0,1.09,3.28C151.22,128.76,150.5,129.19,149.78,129.6Zm22-115.8a4,4,0,0,0-.82-.66c.56-.47,1.12-.93,1.68-1.37s1.09.57,1.43,2.16A12.62,12.62,0,0,0,171.76,13.8ZM176,51.67a5,5,0,0,0-.38-.86c0-.34,0-.68,0-1,.43-.12.85-.6,1.15-1.46l.18-.52c.09.39.19.78.29,1.17A4.72,4.72,0,0,0,176,51.67ZM187.78,83c0-.47-.09-.93-.14-1.38a.76.76,0,0,0,.77.11c.2.62.4,1.21.62,1.77A3.52,3.52,0,0,0,187.78,83Zm3.83,7.72a15,15,0,0,0,.07-1.9c.24.4.47.82.67,1.24C192.1,90.29,191.85,90.52,191.61,90.74Z"/><path class="b" d="M139.52,31c10.08,7,20.24,15.6,30.67,19.37.28,2.41.57,4.83.85,7.25q.17,12.3.71,24.55c0,4.69,0,9.39-.09,14.08,0,1.8.59,3.91,1.38,4.22,1.29.51,2.46,0,3.39-1.43a109.47,109.47,0,0,1,11.71-11.77c2.07-1.77,4.18-3.36,6.29-4.85,1.48-1.05,1.67-5.12,1.41-8.14A15.87,15.87,0,0,0,193,67a36.16,36.16,0,0,1-4-8.92c-2.55-8.14-4.86-16.68-7-25.46s-3.91-17.75-5.65-26.89c-1.86-9.77-6.66-4.57-9.8-2.35L139.5,22.54C137.72,23.79,137.73,29.74,139.52,31Zm36.27,13.58a5.68,5.68,0,0,0-.37-.87l0-1c.43-.11.85-.6,1.15-1.45l.18-.53c.09.4.19.79.29,1.18A4.85,4.85,0,0,0,175.79,44.56ZM180.2,95l.09.35-.32.4C180.05,95.46,180.12,95.22,180.2,95Zm7.37-19c0-.47-.09-.93-.14-1.39a.74.74,0,0,0,.77.12c.2.61.41,1.21.62,1.77A3.28,3.28,0,0,0,187.57,75.91ZM168.21,32.82a6.25,6.25,0,0,1-2.3-1.16,1.19,1.19,0,0,1,.2-.19c.37-.13.73-.26,1.1-.43a1.32,1.32,0,0,0,.44-.36,3.64,3.64,0,0,0,.44-.07C168.11,31.36,168.15,32.09,168.21,32.82ZM191.4,83.63a17.25,17.25,0,0,0,.08-1.9c.23.39.46.81.66,1.23ZM173.84,6.82a11,11,0,0,0-2.29-.13,3.55,3.55,0,0,0-.82-.67c.56-.46,1.12-.93,1.68-1.37S173.5,5.22,173.84,6.82Zm-25.62,18a16.37,16.37,0,0,0-.1,2.12l-1.2-1Z"/><path class="b" d="M169.17,146.05c.29-5.7,0-12.32-.17-16.8l-.46-14.88q.12-26.81.23-53.59c0-2.81-.87-5.17-1.88-5.16Q96.44,56,26,52.68c-1.05,0-1.83,2.39-1.86,5.16q-.53,44.91-.87,89.85c0,3.66,1.1,5.29,2.12,4.92.3,1,.73,1.65,1.3,1.77a367.92,367.92,0,0,0,134.65,3.25,4.39,4.39,0,0,0,3.5-.29.85.85,0,0,0,.39.07,2.2,2.2,0,0,0,1.37-.65l1-.17c1.17-.21,1.76-2.78,1.79-5.31A13.83,13.83,0,0,0,169.17,146.05ZM27.57,84.15a11.53,11.53,0,0,0,.59,1.22v.29c-.27,1.58-.48,3.29-.65,5.07ZM75,124.65c0-.34,0-.65,0-1l.72-1.26.33-.09.16.09a10.45,10.45,0,0,0,2,.32ZM71.24,82.94a2.11,2.11,0,0,0,.72,1c-1,.74-1.91,1.53-2.85,2.4.34-1.11.66-2.23,1-3.37Zm78.33,39.54h-1a4.88,4.88,0,0,0-.29-.82,23.64,23.64,0,0,0,2.38-3.73,8,8,0,0,0,1.08,3.29Q150.65,121.87,149.57,122.48Zm-5-1.16-1.38.27a.89.89,0,0,0-.84-.38l-1.1.15c.59-.42,1.11-.78,1.47-1.1l1.25-1.1A10.49,10.49,0,0,0,144.53,121.32Zm6.13-34.24-.12.16a1.36,1.36,0,0,0,0-.2l.14,0ZM64.85,107.59c-.71-1.5-1.52-2.19-2.36-2.3.75-1.07,1.5-2.09,2.27-3.07a12,12,0,0,0,.52,4.34l0,.06ZM59,95.74a5.43,5.43,0,0,0,.71,1.73c-.1.24-.2.48-.31.7-.86,1.33-1.7,2.71-2.53,4.16l-.07-.16Q57.92,99.14,59,95.74Zm-8.07,22.07c.09-.13.18-.27.28-.4-.06.2-.13.39-.19.59ZM60,126.09a7,7,0,0,0-.63-2.45,3.79,3.79,0,0,0,.21-.54c.21-.27.43-.55.64-.8a14.6,14.6,0,0,0,.2,1.57c-.11.71-.22,1.41-.34,2.12Zm95.75-35.16a.86.86,0,0,0-1.14.29,12.77,12.77,0,0,0,.05-1.51c.62-.29,1.23-.62,1.83-1C156.22,89.45,156,90.18,155.74,90.93ZM95.43,67,95.26,67a2.69,2.69,0,0,0,.24-.48C95.47,66.68,95.45,66.86,95.43,67ZM60.27,71.88l-1.12-.25c0-.07,0-.13,0-.2.63,0,1.27,0,1.9,0a4.47,4.47,0,0,0,.3.62Zm6.56,64.81a.71.71,0,0,0,.1.14h-.14Zm3.81-.76-.06.91h-.65A7.36,7.36,0,0,0,70.64,135.93Zm3.92-.71.15.05c1.51.21,3,.37,4.52.52-1.59.28-3.17.54-4.76.73ZM160.05,87.8a10.54,10.54,0,0,0-.38-1.26c.46-.36.92-.75,1.37-1.16l-.06.27A3.82,3.82,0,0,0,160.05,87.8Zm3.78-5.58,0,.62a2.54,2.54,0,0,0-.2-.24C163.71,82.48,163.77,82.36,163.83,82.22ZM127.35,66.7c0-.29,0-.58,0-.86l4.92,0A31.57,31.57,0,0,0,127.35,66.7ZM46.9,65.62l-2.08.82a15.42,15.42,0,0,0-.76-2.66l3.34.13A7.37,7.37,0,0,0,46.9,65.62Zm-12-.79a1.74,1.74,0,0,0-1.75-.31c-.14-.43-.29-.84-.44-1.23l3.41.15A18.36,18.36,0,0,0,34.94,64.83Zm-7.68,50.82a3.28,3.28,0,0,0,.39.65.88.88,0,0,0-.39-.19ZM27,142.1a15.77,15.77,0,0,0,2.85,2.6c-1-.19-1.91-.36-2.87-.56C27,143.46,27,142.78,27,142.1Zm11.54,3.48a21.31,21.31,0,0,0,2.26-.05c.29.67.66,1.1,1.11,1.07,2.6-.15,5.2-.4,7.8-.73a15.32,15.32,0,0,0,.17,2.29q-6.35-.91-12.68-2A9.32,9.32,0,0,0,38.58,145.58Zm57,5.95,0,.41-.67,0C95.12,151.79,95.33,151.67,95.54,151.53ZM165,69.65a1.42,1.42,0,0,0-.61.55c-.21-2.12-.83-4-1.77-4l-11.43-.07a.84.84,0,0,0-.57.26,4.68,4.68,0,0,0-.2-.45q7.31,0,14.59,0C165,67.18,165,68.41,165,69.65ZM27.83,63.08l0,.18v-.18Z"/><path class="b" d="M17,104.62c.51.75,1,.84,1.45.52.48.4,1,.38,1.54-.28a7.3,7.3,0,0,0,.81-5,9.65,9.65,0,0,0,.1-1.28c.13-8.65.24-17.34.13-26q.22-8.91.7-17.78c.15-2.54.31-5.08.46-7.62,0-.17,0-.33,0-.49L50.48,27c1.67-1.17,1.87-7,0-7.88L12.71.79c-.28,2.65-.57,5.3-.85,8l.73.35a18,18,0,0,0-.93,1.54h0C10.44,22,9.19,33.32,7.73,44.47l-.15,1.14-.39,2.9c0,.16,0,.32-.07.48q-.66,4.88-1.41,9.71c-.06.42-.13.84-.19,1.26-.13.78-.25,1.56-.38,2.35L4.87,64l-.36,2.14c-.11.63-.22,1.26-.32,1.88S4,69.31,3.84,70q-.69,3.78-1.42,7.52c0,.49,0,1,.05,1.49,0,.11,0,.21,0,.32L2.11,79v0q-.48,3.92-1,7.82A83.89,83.89,0,0,1,17,104.62ZM16,20.24c0-.31,0-.63,0-.95a6.42,6.42,0,0,1,.34-.56.77.77,0,0,0,0,.15C16.26,19.31,16.14,19.77,16,20.24Zm3.48-6.44c-.11-.51-.23-1-.36-1.52l1.42.69A1.3,1.3,0,0,0,19.51,13.8ZM16.8,56.91l-.15-.12c0-.26.07-.51.1-.76C16.76,56.32,16.78,56.62,16.8,56.91ZM15.48,10.5l-.27.28c0-.09,0-.17-.05-.26a1.66,1.66,0,0,0-.06-.21ZM5.66,81.8q.24.36.48.69L5.57,82Z"/><path class="b" d="M137.73,49.84l1.65-15.42c.28-2.63-1.21-3.74-1.48-1.13l-1.65,15.43C136,51.34,137.46,52.45,137.73,49.84Z"/><path class="b" d="M141,50.43q.61-5.8,1.21-11.59c.28-2.64-1.21-3.75-1.48-1.13q-.6,5.79-1.21,11.59C139.23,51.93,140.71,53,141,50.43Z"/><path class="b" d="M144.77,49.81a55.24,55.24,0,0,1,.86-7.79c.45-2.42-.87-4.57-1.33-2.14a67,67,0,0,0-1.06,9.94C143.14,52.53,144.67,52.5,144.77,49.81Z"/><path class="b" d="M148.27,49.77c.19-1.86.37-3.71.56-5.56.26-2.64-1.22-3.75-1.48-1.13-.19,1.86-.37,3.71-.56,5.56C146.53,51.28,148,52.4,148.27,49.77Z"/><path class="b" d="M150.67,52.3c.39.63.81.18,1.05-.76a19.37,19.37,0,0,0,.39-6.16c-.24-2.66-1.72-1.53-1.48,1.13a8.51,8.51,0,0,1-.24,2.89A4.74,4.74,0,0,0,150.67,52.3Z"/><path class="b" d="M153.5,50.3a4.68,4.68,0,0,0,.29,2.9c.39.64.79.15,1-.76a13,13,0,0,0,0-5.89c-.25-.93-.66-1.39-1.05-.76a4.69,4.69,0,0,0-.27,2.9c0,.14.07.29.1.44,0,0,0,.07,0,.19v.08a1.05,1.05,0,0,0,0,.19l0,.29C153.64,49.59,153.53,50.2,153.5,50.3Z"/><path class="b" d="M157.73,47.71c-.28-.78-.81-.87-1.08,0a10.53,10.53,0,0,0-.36,4.28c.12,1.1.53,1.8.94,1.48a3.49,3.49,0,0,0,.53-2.61.57.57,0,0,0,0-.13c0,.15,0,0,0-.06s.06-.21,0,0v0A5.23,5.23,0,0,0,157.73,47.71Z"/><path class="b" d="M159.81,49.87c-1,0-1,4.25,0,4.24S160.8,49.87,159.81,49.87Z"/><path class="b" d="M163,50.42c-1,0-1,4.24,0,4.24S164,50.42,163,50.42Z"/><path class="b" d="M53.52,50.48C53.7,53.16,55.18,52,55,49.35L53.52,28.46c-.19-2.69-1.66-1.54-1.47,1.13Z"/><path class="b" d="M51.32,47.77a119.68,119.68,0,0,0-1.47-15.32c-.4-2.5-1.72-.34-1.32,2.14a103.93,103.93,0,0,1,1.25,13.18C49.88,50.47,51.41,50.5,51.32,47.77Z"/><path class="b" d="M47.59,46.15l-.9-9.89c-.25-2.66-1.72-1.53-1.48,1.13l.9,9.89C46.35,49.94,47.83,48.81,47.59,46.15Z"/><path class="b" d="M44.79,46.16,44,38.42c-.28-2.63-1.76-1.51-1.48,1.13l.81,7.74C43.58,49.92,45.06,48.8,44.79,46.16Z"/><path class="b" d="M42.07,46.69a32.58,32.58,0,0,0-.6-6.48c-.47-2.41-1.8-.26-1.32,2.14a22.28,22.28,0,0,1,.39,4.35C40.54,49.43,42.07,49.43,42.07,46.69Z"/><path class="b" d="M38.33,49.82a3.48,3.48,0,0,0,.53-2.61l-.57-4.64c-.13-1.09-.53-1.8-.94-1.48a3.53,3.53,0,0,0-.54,2.61c.19,1.55.39,3.1.58,4.64C37.52,49.44,37.91,50.14,38.33,49.82Z"/><path class="b" d="M35.44,49.31a5.2,5.2,0,0,0,0-3l-.4-1.1c-.3-.82-.79-.82-1.09,0a5.2,5.2,0,0,0,0,3c.13.37.27.73.4,1.1C34.65,50.13,35.14,50.13,35.44,49.31Z"/><path class="b" d="M30.89,46.81c-1,0-1,4.24,0,4.24S31.88,46.8,30.89,46.81Z"/></svg>