<svg xmlns="http://www.w3.org/2000/svg" viewBox="0 0 194.82 162.33"><defs><style>.a{fill:#c85d37;}</style></defs><path class="a" d="M138.4,31c10.09,7,20.24,15.6,30.67,19.37q.44,3.61.85,7.25.17,12.3.71,24.55,0,7-.09,14.08c0,1.8.59,3.91,1.38,4.22,1.29.51,2.46,0,3.39-1.43A110.4,110.4,0,0,1,187,87.25c2.08-1.77,4.18-3.36,6.29-4.85,1.48-1.05,1.68-5.12,1.42-8.14A16,16,0,0,0,191.9,67a36.54,36.54,0,0,1-4-8.92c-2.54-8.14-4.86-16.68-7-25.46S177,14.87,175.27,5.73c-1.86-9.77-6.66-4.57-9.8-2.35L138.38,22.54C136.61,23.79,136.61,29.74,138.4,31Zm36.27,13.58a4.83,4.83,0,0,0-.37-.87l0-1c.43-.11.85-.6,1.16-1.45l.17-.53c.1.4.2.79.29,1.18A4.85,4.85,0,0,0,174.67,44.56ZM179.08,95l.09.35-.32.4C178.93,95.46,179,95.22,179.08,95Zm7.37-19c0-.47-.08-.93-.14-1.39a.75.75,0,0,0,.77.12c.2.61.41,1.21.62,1.77A3.22,3.22,0,0,0,186.45,75.91ZM167.09,32.82a6.32,6.32,0,0,1-2.3-1.16,1.75,1.75,0,0,1,.2-.19,11.38,11.38,0,0,0,1.1-.43,1.23,1.23,0,0,0,.44-.36,3.11,3.11,0,0,0,.44-.07C167,31.36,167,32.09,167.09,32.82Zm23.19,50.81a15.1,15.1,0,0,0,.08-1.9A13.15,13.15,0,0,1,191,83ZM172.72,6.82a11,11,0,0,0-2.29-.13,3.55,3.55,0,0,0-.82-.67c.56-.46,1.12-.93,1.68-1.37S172.39,5.22,172.72,6.82Zm-25.62,18a16.37,16.37,0,0,0-.1,2.12l-1.2-1Z"/><path class="a" d="M168.06,146.05c.28-5.7,0-12.32-.18-16.8l-.45-14.88q.1-26.81.22-53.59c0-2.81-.87-5.17-1.88-5.16Q95.32,56,24.86,52.68c-1.05,0-1.82,2.39-1.86,5.16q-.53,44.91-.86,89.85c0,3.66,1.09,5.29,2.11,4.92.3,1,.73,1.65,1.3,1.77a367.92,367.92,0,0,0,134.65,3.25,4.39,4.39,0,0,0,3.5-.29.85.85,0,0,0,.39.07,2.2,2.2,0,0,0,1.37-.65l1-.17c1.17-.21,1.76-2.78,1.78-5.31A14,14,0,0,0,168.06,146.05ZM26.46,84.15a8.62,8.62,0,0,0,.59,1.22,2.71,2.71,0,0,0,0,.29c-.27,1.58-.48,3.29-.65,5.07C26.41,88.54,26.43,86.34,26.46,84.15Zm47.44,40.5c0-.34,0-.65,0-1q.36-.61.72-1.26l.34-.09a1.19,1.19,0,0,0,.15.09,10.71,10.71,0,0,0,2,.32ZM70.12,82.94a2.18,2.18,0,0,0,.72,1c-1,.74-1.9,1.53-2.84,2.4.33-1.11.66-2.23,1-3.37Zm78.33,39.54h-1a4.86,4.86,0,0,0-.3-.82,23.64,23.64,0,0,0,2.38-3.73,8,8,0,0,0,1.08,3.29Zm-5-1.16-1.38.27a.89.89,0,0,0-.84-.38l-1.1.15c.6-.42,1.11-.78,1.48-1.1l1.24-1.1A11.15,11.15,0,0,0,143.41,121.32Zm6.14-34.24-.12.16,0-.2.14,0S149.55,87.05,149.55,87.08ZM63.73,107.59c-.71-1.5-1.52-2.19-2.36-2.3.75-1.07,1.51-2.09,2.27-3.07a11.79,11.79,0,0,0,.53,4.34.11.11,0,0,0,0,.06C64,106.94,63.89,107.27,63.73,107.59ZM57.84,95.74a5,5,0,0,0,.71,1.73c-.11.24-.21.48-.32.7-.85,1.33-1.7,2.71-2.53,4.16a.77.77,0,0,0-.07-.16C56.41,100.15,57.14,98,57.84,95.74Zm-8.08,22.07.28-.4-.18.59Zm9.11,8.28a7.25,7.25,0,0,0-.62-2.45,5.58,5.58,0,0,0,.2-.54c.22-.27.43-.55.65-.8a14.67,14.67,0,0,0,.19,1.57L59,126Zm95.75-35.16a.86.86,0,0,0-1.14.29,12.77,12.77,0,0,0,.05-1.51c.62-.29,1.23-.62,1.84-1Q155,89.81,154.62,90.93ZM94.31,67,94.14,67a2.69,2.69,0,0,0,.24-.48C94.36,66.68,94.33,66.86,94.31,67ZM59.15,71.88,58,71.63c0-.07,0-.13,0-.2.64,0,1.27,0,1.9,0a6,6,0,0,0,.3.62Zm6.56,64.81a1.7,1.7,0,0,0,.1.14h-.14Zm3.81-.76,0,.91h-.65A7.35,7.35,0,0,0,69.52,135.93Zm3.92-.71.16.05c1.5.21,3,.37,4.51.52-1.58.28-3.17.54-4.75.73C73.39,136.09,73.41,135.65,73.44,135.22ZM158.93,87.8a9,9,0,0,0-.38-1.26c.46-.36.92-.75,1.38-1.16a2.68,2.68,0,0,0-.07.27A4,4,0,0,0,158.93,87.8Zm3.78-5.58,0,.62a1.59,1.59,0,0,0-.2-.24A3.35,3.35,0,0,0,162.71,82.22ZM126.23,66.7c0-.29,0-.58,0-.86l4.91,0A31.57,31.57,0,0,0,126.23,66.7ZM45.78,65.62l-2.08.82a15.42,15.42,0,0,0-.76-2.66l3.34.13A7.89,7.89,0,0,0,45.78,65.62Zm-12-.79a1.72,1.72,0,0,0-1.74-.31q-.22-.64-.45-1.23l3.41.15A18.36,18.36,0,0,0,33.82,64.83Zm-7.67,50.82a3.85,3.85,0,0,0,.38.65.88.88,0,0,0-.39-.19C26.14,116,26.14,115.8,26.15,115.65Zm-.23,26.45a16.11,16.11,0,0,0,2.85,2.6c-1-.19-1.91-.36-2.87-.56C25.91,143.46,25.92,142.78,25.92,142.1Zm11.54,3.48a21.31,21.31,0,0,0,2.26-.05c.29.67.66,1.1,1.11,1.07,2.6-.15,5.2-.4,7.8-.73a18.52,18.52,0,0,0,.17,2.29q-6.34-.91-12.68-2A8.88,8.88,0,0,0,37.46,145.58Zm57,5.95c0,.14,0,.27,0,.41l-.66,0Zm69.45-81.88a1.48,1.48,0,0,0-.61.55c-.21-2.12-.83-4-1.77-4l-11.43-.07a.84.84,0,0,0-.57.26,4.68,4.68,0,0,0-.19-.45q7.29,0,14.58,0C163.89,67.18,163.88,68.41,163.88,69.65ZM26.71,63.08l0,.18v-.18Z"/><path class="a" d="M15.92,104.62c.52.75,1,.84,1.45.52.48.4,1,.38,1.54-.28a7.3,7.3,0,0,0,.81-5,8.21,8.21,0,0,0,.1-1.28c.14-8.65.25-17.34.13-26q.23-8.91.7-17.78.24-3.81.46-7.62c0-.17,0-.33,0-.49L49.36,27c1.67-1.17,1.88-7,0-7.88L11.6.79c-.29,2.65-.57,5.3-.86,8l.73.35a18,18,0,0,0-.93,1.54h0C9.32,22,8.08,33.32,6.61,44.47l-.15,1.14c-.13,1-.25,1.94-.39,2.9L6,49q-.68,4.88-1.42,9.71c-.06.42-.13.84-.19,1.26-.12.78-.25,1.56-.38,2.35L3.75,64l-.36,2.14c-.11.63-.21,1.26-.32,1.88s-.23,1.32-.35,2Q2,73.75,1.3,77.49c0,.49,0,1,.05,1.49l0,.32L1,79v0c-.33,2.61-.65,5.22-1,7.82A83.62,83.62,0,0,1,15.92,104.62Zm-1-84.38c0-.31,0-.63,0-.95s.22-.38.34-.56c0,.05,0,.1,0,.15C15.14,19.31,15,19.77,14.91,20.24Zm3.48-6.44c-.11-.51-.23-1-.35-1.52l1.42.69A1.3,1.3,0,0,0,18.39,13.8ZM15.68,56.91l-.14-.12.09-.76C15.65,56.32,15.66,56.62,15.68,56.91ZM14.37,10.5l-.28.28a2.38,2.38,0,0,0-.05-.26,1.66,1.66,0,0,0-.06-.21ZM4.54,81.8q.24.36.48.69L4.45,82Z"/><path class="a" d="M136.62,49.84q.82-7.71,1.64-15.42c.28-2.63-1.2-3.74-1.48-1.13l-1.64,15.43C134.86,51.34,136.34,52.45,136.62,49.84Z"/><path class="a" d="M139.87,50.43q.6-5.8,1.21-11.59c.27-2.64-1.21-3.75-1.49-1.13l-1.2,11.59C138.11,51.93,139.59,53,139.87,50.43Z"/><path class="a" d="M143.66,49.81a53.84,53.84,0,0,1,.85-7.79c.46-2.42-.87-4.57-1.33-2.14a69.76,69.76,0,0,0-1.06,9.94C142,52.53,143.56,52.5,143.66,49.81Z"/><path class="a" d="M147.16,49.77c.18-1.86.37-3.71.55-5.56.26-2.64-1.22-3.75-1.48-1.13-.19,1.86-.37,3.71-.56,5.56C145.41,51.28,146.89,52.4,147.16,49.77Z"/><path class="a" d="M149.56,52.3c.38.63.8.18,1-.76a19.09,19.09,0,0,0,.39-6.16c-.24-2.66-1.71-1.53-1.48,1.13a8.52,8.52,0,0,1-.23,2.89A4.6,4.6,0,0,0,149.56,52.3Z"/><path class="a" d="M152.39,50.3a4.61,4.61,0,0,0,.28,2.9c.39.64.79.15,1.05-.76a13,13,0,0,0,0-5.89c-.24-.93-.66-1.39-1.05-.76a4.69,4.69,0,0,0-.27,2.9c0,.14.07.29.1.44a1.29,1.29,0,0,0,0,.19v.27l0,.29C152.52,49.59,152.41,50.2,152.39,50.3Z"/><path class="a" d="M156.62,47.71c-.29-.78-.81-.87-1.09,0a10.53,10.53,0,0,0-.36,4.28c.13,1.1.53,1.8,1,1.48a3.54,3.54,0,0,0,.53-2.61s0-.09,0-.13c0,.15,0,0,0-.06s.06-.21,0,0v0A5.14,5.14,0,0,0,156.62,47.71Z"/><path class="a" d="M158.69,49.87c-1,0-1,4.25,0,4.24S159.68,49.87,158.69,49.87Z"/><path class="a" d="M161.89,50.42c-1,0-1,4.24,0,4.24S162.88,50.42,161.89,50.42Z"/><path class="a" d="M52.4,50.48c.19,2.68,1.67,1.54,1.48-1.13L52.41,28.46c-.19-2.69-1.67-1.54-1.48,1.13Z"/><path class="a" d="M50.2,47.77a119.68,119.68,0,0,0-1.47-15.32c-.4-2.5-1.72-.34-1.32,2.14a105.76,105.76,0,0,1,1.26,13.18C48.76,50.47,50.3,50.5,50.2,47.77Z"/><path class="a" d="M46.47,46.15l-.9-9.89c-.24-2.66-1.72-1.53-1.48,1.13l.9,9.89C45.23,49.94,46.71,48.81,46.47,46.15Z"/><path class="a" d="M43.67,46.16l-.81-7.74c-.27-2.63-1.75-1.51-1.48,1.13l.81,7.74C42.47,49.92,44,48.8,43.67,46.16Z"/><path class="a" d="M41,46.69a33.32,33.32,0,0,0-.61-6.48C39.88,37.8,38.56,40,39,42.35a22.28,22.28,0,0,1,.39,4.35C39.42,49.43,41,49.43,41,46.69Z"/><path class="a" d="M37.22,49.82a3.57,3.57,0,0,0,.53-2.61l-.57-4.64c-.14-1.09-.53-1.8-1-1.48a3.49,3.49,0,0,0-.53,2.61l.57,4.64C36.4,49.44,36.8,50.14,37.22,49.82Z"/><path class="a" d="M34.32,49.31a5.2,5.2,0,0,0,0-3l-.4-1.1c-.3-.82-.79-.82-1.08,0a5.11,5.11,0,0,0,0,3c.14.37.27.73.4,1.1C33.53,50.13,34,50.13,34.32,49.31Z"/><path class="a" d="M29.77,46.81c-1,0-1,4.24,0,4.24S30.76,46.8,29.77,46.81Z"/></svg>