<svg xmlns="http://www.w3.org/2000/svg" viewBox="0 0 330.2 159.86"><defs><style>.a{fill:#bc5637;}.b{fill:#ce603e;}</style></defs><path class="a" d="M324.94,83.79C313.48,78.7,299.3,67.67,291.77,58c13.42-13.41,23.25-25.34,30.9-42.9,1.11-2.55.34-4.45-1.11-6.48-1-1.44-2.38-2.65-3.89-1.9-33.82,17-89.47,25.21-128.23,28.58-27,2.34-60.25-2.36-86.56-11.58-3.44-.85-6.11-2-9.18-3a3.09,3.09,0,0,0-1.7-.07c-10-3.1-19.41-6.32-29.66-9C49.49,8.32,35.56,7.65,23.6,1.29a1.59,1.59,0,0,0-.92-.16s1.7.6-1.14-.69-6.86,5.13-4.7,9.8C18.6,14,20.53,20.6,23.31,24.53c.67,1.84,1.56,3.86,2.22,5.54C28,36.3,30.38,42.22,32.81,48.41c1.46,3.73,3,7.51,4.14,11.37-12.29,4.9-23.81,9.47-34.77,17.29a5.33,5.33,0,0,0-.61,8.08c.24.24.55.25.72.48A5.77,5.77,0,0,0,3.7,87.28a21.49,21.49,0,0,0,6.14,2.51C90.71,134.84,201.09,147.28,288,112.51c12.61-5,28.29-10.81,39.36-19.8C333.45,89.73,328.31,85.29,324.94,83.79ZM279.13,51.64a8.7,8.7,0,0,0-.48-1.47q2.58-1,5.1-2.13Zm2.52,32a12.54,12.54,0,0,1-1,1.07c-.68-.48-1.33-1-2-1.5.2-.23.39-.46.58-.7A13.06,13.06,0,0,1,281.65,83.63Zm-82.51,17.74c-.24.73-.48,1.46-.69,2.19,0,.14-.07.28-.1.42-.88,0-1.76,0-2.65,0,.21-.18.25-.52.49-.67C197.16,102.63,198.2,102.06,199.14,101.37ZM177.48,90.91a13.46,13.46,0,0,0-.64-2.24l3.75-.24a34.64,34.64,0,0,0-3,4.37A8.65,8.65,0,0,0,177.48,90.91Zm55-25.86.09,0s-.08.09-.09.09S232.46,65.06,232.47,65.05ZM216.11,58.2l-6,1.47c-3-.15-5.92-.28-8.88-.37C206.18,58.93,211.15,58.59,216.11,58.2ZM162.76,45.66c-.1,0,.09-.5,0-.6.78-.06,1.55-.09,2.33-.13-.57.14-1.19.35-1.74.48C163.16,45.46,162.87,45.68,162.76,45.66Zm-127.3-5.9s0,.15,0,.14a2.09,2.09,0,0,1-.2-.22A.55.55,0,0,1,35.46,39.76ZM46,52.06s0,.35,0,.33A2.73,2.73,0,0,1,45.6,52,1,1,0,0,1,46,52.06ZM60.68,47.7A35.66,35.66,0,0,0,64.79,47a43.19,43.19,0,0,0-2.37,4.83,20.89,20.89,0,0,1-3,0A7,7,0,0,0,60.68,47.7Zm50.12,2a2.32,2.32,0,0,1-.4-.1s.58,0,.62,0S110.85,49.69,110.8,49.69Zm-10.41,3.36c-1.4.09-2.83.22-4.23.4a7.14,7.14,0,0,0-.83-2.09c1.65-.28,3.28-.6,4.91-1a17.76,17.76,0,0,0,.3,2.65C100.55,53.11,100.44,53,100.39,53.05ZM55.17,64.81l-3.61-5.06a29.54,29.54,0,0,0,5.31,1.92C56.28,62.7,55.72,63.75,55.17,64.81Zm93.32,11.07.55.61c-1.64.74-3.14,1.24-4.8,2.09a5.16,5.16,0,0,0-2.65,4.29L134,84Q141.32,80.07,148.49,75.88ZM76.73,37.24s0,0,0,0h0Zm-19.94.17a5.44,5.44,0,0,0-2.27-2.73,1.58,1.58,0,0,0-.23-.11c1.53.2,3.07.39,4.62.56l1,.13A29.3,29.3,0,0,0,56.79,37.41Zm-8,33,1.29,1.89c-.17.42-.32.84-.45,1.27L48,71.44A4.53,4.53,0,0,0,48.79,70.45Zm73.49,8a3.53,3.53,0,0,0-.91-.65c-.45-.21-1.19-.53-1.7-.74,3.88-1.16,7.71-2.13,11.62-3.36,1.6-.51,2.32-2,2.58-3.6,1.06.23,2.09.51,3.13.79Q129.73,74.87,122.28,78.5ZM231.2,84.81c-.54.75-1,1.52-1.51,2.31A8.16,8.16,0,0,0,229,85Zm39.34-38.43c-.05-.22-.06-.43-.12-.64l1.54,0a7.87,7.87,0,0,0,1.3,4.07c-1,.65-2,1.32-3.05,2A8.13,8.13,0,0,0,270.54,46.38ZM251.26,29.94l-7.07.45A5.33,5.33,0,0,0,243,29.05q6.3-.35,12.6-.75C254.14,28.84,252.69,29.38,251.26,29.94Zm-40,2.22-.85,0A3,3,0,0,0,208.75,31c-.77-.21-1.62-.36-2.4-.56l5.86-.12A6,6,0,0,0,211.28,32.16Zm-141-7.41c-3.11-.31-6.23-.47-9.35-.55-.1,0-.17-.12-.27-.13l9.72.49C70.34,24.62,70.3,24.68,70.27,24.75Zm58.66,82.73a8.78,8.78,0,0,0-.1.88l-2.85-.07C127,108,128,107.76,128.93,107.48Zm113.65,2.36a42.81,42.81,0,0,0,7.51.11c0,.15,0,.27.07.41-3.84,0-7.69,0-11.54-.08A35.26,35.26,0,0,1,242.58,109.84ZM314.06,25.3a1.3,1.3,0,0,1,.39,0,1.44,1.44,0,0,1-.31.29S314,25.32,314.06,25.3Zm-18.56.49q-3.81.81-7.57,1.81c-.91-.16-1.9-.22-2.78-.36a.79.79,0,0,1-.43-.26.82.82,0,0,1,.1-.59c.09-.08.38,0,.58-.05C288.74,26.14,292.14,25.94,295.5,25.79ZM41.15,76.74c-.57.21-1.14.42-1.7.65.49-.36,1-.72,1.48-1.07Z"/><path class="b" d="M263.62,132.62c.2-9.73-.14-12.52-.1-23.49,0-9.1-.44-7.1-.15-23.19s-.88-52,.15-71.8c.16-3.11-.39-9.55-2.1-9.28C181.66,17.53,155.72,17.89,79.14,0c-1.71-.39-3,4.28-3.58,8-6,40.59-2.12,84.15-.78,125.19.16,5,.1,4.24,2.81,7.56.31.59.81,2,1.62,2.21,63.53,19.51,110.16,23,174.86,5.54a7.05,7.05,0,0,0,4.44-.74c.17-.08.3.11.5,0a4.8,4.8,0,0,0,1.77-1c.4-.32.73.11,1.32-.41,2-1.82,2-4.54,2-7.36C264.14,137.19,264.29,134.3,263.62,132.62ZM80.31,44.81a13.69,13.69,0,0,0,.76,1.72c0,.14,0,.27,0,.41-.35,2.23-.63,4.65-.85,7.17ZM141.91,102c0-.48,0-.92,0-1.38.31-.58.63-1.17.93-1.77l.44-.14a1.2,1.2,0,0,0,.21.13,12.83,12.83,0,0,0,2.57.45ZM137,43.11a3.05,3.05,0,0,0,.93,1.35c-1.24,1-2.47,2.16-3.69,3.38.44-1.56.86-3.15,1.28-4.75C136,43.09,136.5,43.12,137,43.11ZM238.71,99H237.4a6.87,6.87,0,0,0-.38-1.16,32.82,32.82,0,0,0,3.08-5.26,12,12,0,0,0,1.41,4.63C240.58,97.78,239.64,98.37,238.71,99Zm-6.55-1.64-1.79.38a1.14,1.14,0,0,0-1.09-.54l-1.43.21c.77-.59,1.45-1.09,1.92-1.54l1.61-1.56A17.41,17.41,0,0,0,232.16,97.31Zm8-48.34a1.88,1.88,0,0,1-.16.23l0-.28.18-.06S240.12,48.94,240.12,49ZM128.71,77.91c-.93-2.13-2-3.1-3.07-3.24,1-1.52,2-3,3-4.34a18.3,18.3,0,0,0,.68,6.13s0,.05,0,.08Zm-7.66-16.73a8.22,8.22,0,0,0,.92,2.45c-.13.32-.26.66-.4,1-1.12,1.86-2.21,3.82-3.29,5.86l-.09-.23C119.2,67.41,120.15,64.38,121.05,61.18ZM110.57,92.34c.12-.19.24-.38.37-.57-.08.29-.17.55-.24.83ZM122.4,104a10.61,10.61,0,0,0-.81-3.46,6.09,6.09,0,0,0,.27-.76c.27-.38.55-.77.83-1.12.06.77.14,1.51.26,2.21-.15,1-.29,2-.44,3A.76.76,0,0,1,122.4,104ZM246.71,54.41c-.47-.3-1-.2-1.48.4.06-.71.08-1.42.07-2.12.79-.41,1.59-.87,2.38-1.37C247.34,52.32,247,53.35,246.71,54.41ZM168.4,20.68l-.22-.09a3.88,3.88,0,0,0,.31-.68ZM122.75,27.5c-.48-.13-1-.24-1.45-.35,0-.1,0-.19,0-.29.83,0,1.65,0,2.47,0a6.46,6.46,0,0,0,.39.87ZM131.28,119c0,.08.09.13.13.2h-.18Zm4.95-1.07-.07,1.28c-.28,0-.56,0-.84,0A12.18,12.18,0,0,0,136.23,117.92Zm5.09-1a.84.84,0,0,0,.2.08c2,.29,3.91.52,5.86.73-2,.4-4.11.77-6.17,1C141.25,118.14,141.28,117.52,141.32,116.91ZM252.3,50a12,12,0,0,0-.49-1.78c.6-.52,1.19-1.07,1.79-1.64l-.09.38A5.79,5.79,0,0,0,252.3,50Zm4.91-7.88,0,.88a3.35,3.35,0,0,0-.26-.34C257.06,42.49,257.14,42.31,257.21,42.12ZM209.84,20.2c0-.41,0-.81,0-1.21l6.38.07A39,39,0,0,0,209.84,20.2ZM105.4,18.65c-.9.41-1.8.78-2.7,1.17a24.87,24.87,0,0,0-1-3.76l4.33.18A10.67,10.67,0,0,0,105.4,18.65ZM89.86,17.54a2.08,2.08,0,0,0-2.26-.44c-.19-.61-.38-1.18-.58-1.74,1.47.08,3,.14,4.43.21C90.9,16.19,90.37,16.85,89.86,17.54Zm-10,71.74a6,6,0,0,0,.5.92,1,1,0,0,0-.5-.27Zm-.29,37.33a22.1,22.1,0,0,0,3.7,3.68c-1.24-.27-2.48-.52-3.72-.8C79.61,128.53,79.62,127.57,79.62,126.61Zm15,4.92a26.06,26.06,0,0,0,2.93-.07c.38.95.86,1.55,1.44,1.52q5.07-.33,10.13-1a25.9,25.9,0,0,0,.22,3.24q-8.23-1.31-16.46-2.9A11.86,11.86,0,0,0,94.61,131.53Zm74,8.42,0,.57-.86,0ZM258.72,24.37a2,2,0,0,0-.79.78c-.26-3-1.07-5.61-2.29-5.62l-14.84-.1a1.08,1.08,0,0,0-.75.37,4.59,4.59,0,0,0-.25-.63q9.48,0,18.94,0C258.74,20.88,258.73,22.63,258.72,24.37ZM80.64,15.06c0,.09,0,.17,0,.26v-.26Z"/></svg>