<svg xmlns="http://www.w3.org/2000/svg" viewBox="0 0 1030.01 1293.82"><defs><style>.a{fill:#8a5d3f;}.b{fill:#bd825b;}.c{fill:#634435;}.d{fill:#6d4b38;}.e{fill:none;}</style></defs><path class="a" d="M0,1156.9,608.32,756.82s70-40.71,84,40.65L118,1271.48S19.91,1190.18,0,1156.9Z"/><path class="a" d="M1014.55,1095.29,346.09,789.37s-60-5.75-46,48.49l574.6,393S1028.55,1149.53,1014.55,1095.29Z"/><path class="a" d="M370.16,1217.3l84-447.21s21.78-40.6,52.42,0l6.88,33.07,80.77,414.14S425.9,1267.67,370.16,1217.3Z"/><path class="b" d="M379.2,1208.1c-11.22,4.76-12.54,16.36-13,26.13-1.81,18,29.44,41,46.21,48.38,32.52,13.69,70.64,12.91,105.33,7.84,13.94-2.51,35.77-13.74,48.56-19,48.26-22.1,34.81-76.23-15.2-91.54-35.41-7.37-70.76,7.94-103.15,18.76C426.8,1205.7,399.47,1202,379.2,1208.1Z"/><path class="b" d="M858.67,1209.1c-4.46-26.44,47.23-49.07,53.27-63.59,16.47-40.18-24.13-45.3,64.91-53.25,51.82-10,54.29,22,52.9,61.24-2,47.44-40.42,68.35-80,80.26C888.47,1244.37,870.43,1242.75,858.67,1209.1Z"/><path class="b" d="M0,1156.9c19.91,141.7,184.05,146.3,95.86,68.24-24.56-34.85,30.16-4.55-25.1-62.7-15.26-16.15-68.17-11.6-70.76-5.7C0,1157.21.72,1158,0,1156.9Z"/><path class="c" d="M404.18,1035l83.25-68.77,66.78,45.67,3.32,18.29s-83.61-67.93-157.27,25.65Z"/><polygon class="d" points="390.61 899.77 471.2 846.63 456.18 840 373.65 888.17 390.61 899.77"/><polygon class="c" points="456.18 840 471.2 846.63 516.32 817.06 514.51 808.44 456.18 840"/><path class="d" d="M487.67,966.18l66.78,45.67c3.25-38.69,23-74.94,55.38-101.73l-34.87-16Z"/><path class="e" d="M785,870.3c19.1-65.3,2.4-173.2-28.7-256.9-2-6.7-4.1-13.4-6.4-20.2-1.1-1.8-2.2-3.6-3.3-5.3C713,501.7,671.4,406.6,680,284.4a233.83,233.83,0,0,0,2.2-23.5c0-.4.1-.8.1-1.1,0,.2-.1.5-.1.7.2-6.8-.5-11.9-2.5-12.9-39.7,42.4-33.1,100.8-51.6,151-19.5,53.1-66.7,93.9-74,150.3-4.4,7.1-12.4,2.3-14.8-3.3-79-256,50-351.9,14-545.6-16.9,5-18,53.6-23.2,71.7-7.3,24.9-18.1,51.6-30.5,80.3C450.5,253,388.8,360,392,471.1c-2.9-6.8-1.7-22.7-1-27.2C380.7,298.5,491.9,171.8,347.9,46.1c-1.3.1-4.3-.4-5.3,1a20.08,20.08,0,0,1,.1,2.5c-.1-.7-.3-1.5-.4-2.2-8.3,6.5-2.1,41.1-1.9,52.6,5.9,105-42.2,196.8-91.8,288.8-26.3,41.4-54.2,90.4-78.3,164.8-4.6,13.5-8.7,27.1-12.1,41-2.3,8.6-4.6,17.6-6.8,26.8C121.7,745.5,115.3,898.1,273.5,1019c82.9,63.3,308.4,69.5,396.7,1.3C718,983.3,773.5,909.6,785,870.3ZM312.9,279.6c4.8-11.7,9.3-23.6,13.3-35.4A325.81,325.81,0,0,1,312.9,279.6Z"/><path class="e" d="M354.6,46.3c144,126.3,32.9,253.7,43.1,399.8-1.1,6.8-3.1,39.9,9.1,27.8C419.8,303.5,507.4,173.3,536.7,72,542,53.8,543,5,559.9,0c36,194.8-92.9,291.2-14,548.5,2.4,5.6,10.5,10.5,14.8,3.3,7.2-56.6,54.5-97.7,74-151,18.5-50.5,11.9-109.2,51.6-151.8,6.4,3.1-1,45-2.7,57.7,1.9,10.1-2.2,19.7-1.5,29.8,2.1,91.5,24,180.2,74.3,259.9C950.1,1171.3,23.7,1189,158,624.5c73.7-309.7,210.5-260,191.1-577.2,1.2-1.4,4.1-.9,5.5-1"/><path class="e" d="M320.72,452.9c-232.1,476.6,313.3,666,343.7,286.2-8.7-78.4-46-159.4-7.3-235.9-56.9,64.3-48.4,217.4-99.2,348.5-22.5-145-112.1-306.9-91.5-407.5-46.7,236.5,32.6,439-30.9,409.2-132.2-61.9-121.1-362.9-115.6-405.6C321,447.5,323.42,447.2,320.72,452.9Z"/><path class="e" d="M681.08,247.6c-42.1,47.8-29.4,112-53.6,167.2-14.7,33.4-41.5,58.7-57.5,91-4,8.7-10.2,20.2-11.5,29.5-1.4,9.7-1.1,22.6-13.3,15.6a3.47,3.47,0,0,1,2.3-1.8c1.5-68.9,68.6-116.3,86.9-181.2C641.28,331.6,644.88,268.8,681.08,247.6Z"/></svg>