<?xml version="1.0" encoding="UTF-8"?><svg id="Layer_1" xmlns="http://www.w3.org/2000/svg" xmlns:xlink="http://www.w3.org/1999/xlink" viewBox="0 0 720 720"><defs><style>.cls-1,.cls-2,.cls-3{stroke-width:0px;}.cls-2{fill:#fff;}.cls-3{fill:url(#New_Gradient_Swatch_1);}</style><linearGradient id="New_Gradient_Swatch_1" x1="360" y1="682.3" x2="360" y2="37.7" gradientUnits="userSpaceOnUse"><stop offset="0" stop-color="#ffbb13"/><stop offset=".3" stop-color="#ffb912"/><stop offset=".4" stop-color="#ffb210"/><stop offset=".4" stop-color="#ffa60d"/><stop offset=".5" stop-color="#ff9508"/><stop offset=".5" stop-color="#ff7f02"/><stop offset=".5" stop-color="#ff7800"/><stop offset=".6" stop-color="#ff5f00"/><stop offset=".7" stop-color="#ff3c00"/><stop offset=".7" stop-color="#f20"/><stop offset=".8" stop-color="#ff0f00"/><stop offset=".9" stop-color="#ff0300"/><stop offset="1" stop-color="red"/></linearGradient></defs><path class="cls-3" d="m37.7,360c0,178,144.3,322.3,322.3,322.3s322.3-144.3,322.3-322.3S538,37.7,360,37.7,37.7,182,37.7,360"/><path class="cls-1" d="m360,685.8c-87,0-168.8-33.9-230.4-95.4-61.5-61.5-95.4-143.3-95.4-230.4s33.9-168.8,95.4-230.4c61.5-61.5,143.3-95.4,230.4-95.4s168.8,33.9,230.4,95.4c61.5,61.5,95.4,143.3,95.4,230.4s-33.9,168.8-95.4,230.4c-61.5,61.5-143.3,95.4-230.4,95.4Zm0-644.6c-85.1,0-165.2,33.2-225.4,93.4-60.2,60.2-93.4,140.3-93.4,225.4s33.2,165.2,93.4,225.4c60.2,60.2,140.3,93.4,225.4,93.4s165.2-33.2,225.4-93.4c60.2-60.2,93.4-140.3,93.4-225.4s-33.2-165.2-93.4-225.4c-60.2-60.2-140.3-93.4-225.4-93.4Z"/><path class="cls-1" d="m230.6,342.7h25.8c5.7-.4,11.4-.7,17.1-1.1-.8-45.2-.3-90.4,1.5-135.6,9.3-1.2,13.9-1.8,23.2-2.8,1.6,46.6,4.2,93.1,7.5,139.5h63.1c-3.1-97.4-7.3-194.7-11-292-36.3.2-71.2,6.6-103.6,18.2-19.2,90-25.3,181.9-23.6,273.8m41.1-239.8c18.4-3.9,36.7-7,55.4-9.2,0,13.4-.1,26.9,0,40.3-20.3,1.4-40.5,3.8-60.5,7.2,1.6-12.8,3.3-25.6,5.2-38.3"/><path class="cls-1" d="m123.9,273.8c4.4-.6,6.7-.8,11.1-1.4,4,23.7,9.2,47,15.3,70.2h63c-2.5-90.1,3.6-180.2,25.4-267.8-13.2,5.5-25.9,12-38,19.2-14.6,37-25.1,74.8-32.7,113.9-2.3,3.4-3.5,5.2-5.9,8.6-5.3,1.2-8,1.8-13.3,3,8.9-40.5,21.2-79.3,38.3-117-7.9,5.3-15.6,10.9-23,16.9-18.7,33.5-32.9,68.3-43.7,105.3-5.2,1-7.7,1.5-12.8,2.6-.7-3.5-1-5.3-1.5-8.7,8.7-28,20-53.9,34.9-78.6-52.9,52.2-87.1,123.4-91.8,202.4h43c9.9-23.3,20.5-46.2,31.6-68.9"/><path class="cls-1" d="m437.1,342.7c1.1-49.2.9-98.4-1-147.7,10.1,1.1,20.3,2.3,30.3,3.8,3,48,3.7,95.9,2.6,143.9h51.5c0-58.7-4.6-116.9-14.6-174.8-8.5-4.4-17-8.8-25.5-13.1.7-26.9.4-53.9-2.7-80.6-8.5-3.5-17.2-6.7-26.1-9.5,1.2,28.8.6,57.4-1,86.2-7.5-1.6-11.2-2.4-18.7-3.9-2.9-30.1-6.3-60.1-10.5-90.1-15.1-3.1-30.6-5-46.4-5.8,4.5,97.1,7.2,194.4,8.2,291.6h53.9Z"/><path class="cls-1" d="m537.2,342.7h132c-1.1-17.9-3.6-35.5-7.6-52.5-26.9-1.6-53.9-2.5-80.9-2.8-1.4-14.2-3.1-28.3-5.4-42.4,25.5,2.7,50.8,6.3,76,10.7-5.9-16.4-13.2-32.2-21.7-47.3-22.7-7.3-45.8-13.2-68.9-19.3-3-12.1-6.4-24.2-10.2-36.1,20.2,5.8,39.9,13.7,58.5,23.6-29.5-39.9-68.3-72.5-113.3-94.5,29.6,83.9,41.9,171.6,41.4,260.4"/><path class="cls-1" d="m663.8,409.4c-4.7.2-10.7.2-11.9-.8-.5-.4-1.8-.7-3.6-.9-.5-.3-.9-.7-1.3-1,0,0,0,0,0,0-.2-.1-.3-.3-.5-.5-.1-.1-.2-.2-.3-.3-.1-.1-.3-.3-.4-.4-.2-.2-.5-.5-.7-.8,0,0-.2-.2-.3-.3-.2-.2-.4-.5-.6-.7,0-.1-.2-.2-.2-.3-.3-.3-.5-.7-.8-1-1.2-1.7-2.4-3.3-3.6-4.9-1.2-1.6-2.5-3.2-3.7-4.6-.6-.8-1.4-1.5-2.1-2.2-.7-.6-1.5-1.1-2.3-1.2-2.1-.3-4.1-.5-6.2-.7-2.1-.1-4.1-.2-6.2-.3-3.2,0-6.4-.2-9.6-.3-3.2,0-6.4,0-9.6.1-2.4.2-4.6-.4-6.8-1.3-2.2-.9-4.3-2.2-6.4-3.4-1.6-1-3.2-2.1-4.8-3.1-1.6-1-3.3-1.8-4.9-2.1-4.1-.7-8.2-1.2-12.3-1.5s-8.2-.6-12.3-.8c-2.5-.1-5.1,0-7.6.1-2.5.2-5.1.4-7.6.6-4.6.3-9.1.7-13.7,1-4.6.4-9.1.7-13.7.9-4.6.2-9.2.4-13.9.6-4.6.1-9.2.2-13.9.2-5.4,0-10.8,0-16.2-.1-5.4,0-10.8-.2-16.2-.3-.6,0-1.2,0-1.8-.1-.6,0-1.2,0-1.8,0-2.9.3-5.8.6-8.7,1-2,.2-4.1.4-6.1.6l-61,1.4c-.3,0-.7-.1-1-.2-.5,0-.9-.1-1.4-.2-.3,0-.7,0-1-.1-.5,0-1-.1-1.5-.2-.3,0-.6,0-.8,0-.8,0-1.6-.1-2.4-.2-3.5-.1-1.7.1-10.4.1-1.7.5-2.9.4-4.6.6-1.7.2-3.5.6-5.2.4-2.4-.3-4.3-.4-6.7-1-2.4-.6-5.5-.8-7.9-1.2-1.7-.3-3.7-.4-5.5-.5-1.8,0-3.5-.1-5.3-.2-2.4-.1-4.8,0-7.1,0-2.4,0-4.8-.1-7.1-.6-2.1-.4-4.2-.8-6.3-.9-2.1-.1-4.2,0-6.3.5-1.8.4-3.7,1-5.5,1.4-2,.4-8.5.8-4.8.5-.7,0-6.4.2-7.2,0-.8-.2-1.9-1-2-2.2-.3-2.8-.9-4.4-1.9-5.6q-1-1.2-2.8-1.9c-3.7-.3-18.7-1.4-22.3-1.8-3.7-.4-7.4-.8-11.1-1-2.8-.2-5.7-.3-8.5-.3-2.8,0-5.7-.1-8.5-.4-2.8-.2-5.5-.2-8.2.1-2.7.3-5.4,1-8.1,2-2.6,1-5.3,1.6-7.9,1.9-2.7.3-5.3.2-8,0-1.7-.2-3.4-.2-5.2,0-1.7.1-3.5.3-5.2.5-3.5.4-7,1-10.5,1.5-3.5.5-7,1.1-10.5,1.6-.9.1-1.7.2-2.6.3-.9.1-1.7.3-2.5.8-1.9,1.1-3.8,2.4-5.7,3.7-1.9,1.3-3.7,2.7-5.5,4.1-1.9,1.5-3.9,2.4-5.9,3-2,.6-4,.9-6.1,1.2-1.2.2-2.1,0-2.9-.7s-1.5-1.8-2-3.5c-.7-2.3-1.7-3.9-2.9-4.9-1.2-1-2.6-1.3-4.2-1-2.3.5-4.7.9-7,1.3-2.3.4-4.7.9-7,1.6-2.8.8-5.4,2.4-7.7,4.7-2.3,2.2-4.5,5.1-6.4,8.6-1,1.7-1.9,3.5-2.9,5.2-1,1.7-2,3.4-3,5-1.2,2-2.6,3.6-4.1,4.8-1.5,1.2-3.1,2-4.8,2.4-1.9.4-3.8.8-5.7,1.1-.9.1-1.8.3-2.7.4l-5.7-.3c-.8,0-1.4.6-1.2,1.4,24.9,146.6,152.4,258.2,306.1,258.2s282.4-112.6,306.4-260.2c.2-1.1-.7-2.2-1.9-2.1Z"/><path class="cls-2" d="m184.3,573.7l-15,.7-1.1-75.6-14.8-.9-.9-55.2,44.9-1.7.8,57.2-14.6-.3c0,19.7.4,55.2.7,75.7Z"/><path class="cls-2" d="m233.1,575.1l-1.6-59.7-7.9.7,2,57.6-22,.9c0-33.3-.7-100.4-1.2-131.8l19.5-1.4.9,43.1,9.2-.9-.4-42.1,18,1c.4,33.7,1.5,98.1,2.5,131.6l-19,.9Z"/><polygon class="cls-2" points="257.1 575.1 255.4 441.5 294.4 442.2 295.4 472.1 269.8 474 270.2 493.9 292.5 492 293.7 519.7 274.2 521.8 274.9 544.7 295.5 542.6 296 573.1 257.1 575.1"/><path class="cls-2" d="m328.8,575.2c-1.7-2.3-5.2-8.2-7-10.8.2-37.5.5-75.7.2-112.4l6-9.3,39.3-1.9.9,31.8-34.9,1.4,1.1,51.5,25.6,1.2-.5-16.2-12.2.7-.8-23.7,21.1-.3,1.2,86.9-40,1.2Z"/><path class="cls-2" d="m402.1,442.6l.5,32.3c-11.6,0-17.6.7-29.4.3l-.6-33.7c9.9.3,20.2.9,29.5,1Z"/><path class="cls-2" d="m374.8,574.7c-.4-23-1.1-63.4-1.8-88.7,11.9,0,17.5,0,29.2-.7,1.1,22.3,3.2,66,4.1,88l-31.5,1.4Z"/><path class="cls-2" d="m498.4,575.1c-2.1-14.1-6.3-40.3-8.4-53.8l-6.5-1.4,1.8,54.1-18.8,1-2.7-133,9.2-.9,23.5,48,.8-46.4,17.2-1.6c0,32.5,1.1,89.9,1.9,131.8l-18,2.1Z"/><polygon class="cls-2" points="550.7 574.5 532 573.8 531.2 483.8 519.1 484.3 518.4 442.8 559.7 441 560.9 484.3 550.3 483.8 550.7 574.5"/><path class="cls-2" d="m451.2,442.1l-39.7.3c0,32.1-1,97.2-1.5,130.9l15,1,1.2-64.1,9.7,1,.6,63,24.2-.3-9.6-131.9Zm-27.1,50.2l1.1-26.9,9.7-.7c.5,8.6.8,17.8,1.5,28.3l-12.4-.7Z"/></svg>